Coordinates
version=1
nRows=10
nColumns=22
inDegrees=yes

Units are S.I. units (second, meters, Newtons, ...)
If the header above contains a line with 'inDegrees', this indicates whether rotational values are in degrees (yes) or radians (no).

endheader
time	pelvis_tilt	pelvis_list	pelvis_rotation	pelvis_tx	pelvis_ty	pelvis_tz	hip_flexion_r	hip_adduction_r	hip_rotation_r	knee_angle_r	ankle_angle_r	subtalar_angle_r	hip_flexion_l	hip_adduction_l	hip_rotation_l	knee_angle_l	ankle_angle_l	subtalar_angle_l	lumbar_extension	lumbar_bending	lumbar_rotation
      1.69000000	     -6.43157342	     -1.10692995	    -29.77126974	     -0.81434593	      0.86543657	     -0.34724844	     33.72680216	     -1.75410255	     -1.78083030	    -22.59724427	      6.62879898	      2.85732140	     -5.99612143	     -1.68989185	      6.21534991	     -9.63556718	     23.88883466	     -3.31500135	     -1.88190117	      2.69588764	      4.80583629
      1.70000000	     -6.28547816	     -0.98283687	    -29.65718392	     -0.81045621	      0.86398425	     -0.34464975	     33.46717162	     -1.96245900	     -1.73038701	    -20.47653745	      6.23635564	      3.06700531	     -6.34161952	     -1.53222081	      6.29273164	     -9.75813971	     24.24217789	     -3.25803422	     -1.89536875	      2.57651368	      4.73384038
      1.71000000	     -6.14547606	     -0.85816048	    -29.55265602	     -0.80650873	      0.86250322	     -0.34193553	     33.22469164	     -2.15395451	     -1.66074359	    -18.44665289	      5.86110859	      3.30341248	     -6.68503628	     -1.38207944	      6.35625519	     -9.89332315	     24.59287692	     -3.18611411	     -1.90572967	      2.45952767	      4.67888160
      1.72000000	     -6.01226561	     -0.73603019	    -29.45068493	     -0.80249468	      0.86100520	     -0.33911643	     33.00199820	     -2.33081382	     -1.58260449	    -16.52777773	      5.51240535	      3.56958672	     -7.02788337	     -1.24331360	      6.41131738	    -10.03698604	     24.93987308	     -3.09997472	     -1.91351927	      2.34951395	      4.62931643
      1.73000000	     -5.89278575	     -0.61233151	    -29.34300384	     -0.79842865	      0.85948700	     -0.33620450	     32.81264281	     -2.49817145	     -1.50942413	    -14.73781612	      5.18866501	      3.85790832	     -7.35852096	     -1.11628195	      6.46876745	    -10.19045404	     25.28082506	     -3.00441960	     -1.91204019	      2.24395000	      4.57389117
      1.74000000	     -5.79229714	     -0.48144987	    -29.22558490	     -0.79431366	      0.85795003	     -0.33321728	     32.67067229	     -2.66248471	     -1.46927922	    -13.09807508	      4.88082504	      4.15878729	     -7.66582643	     -0.99768131	      6.53793417	    -10.35718295	     25.60991842	     -2.90497250	     -1.89276469	      2.14274698	      4.51233233
      1.75000000	     -5.72739133	     -0.32601109	    -29.09241645	     -0.79019520	      0.85636640	     -0.33018905	     32.60561407	     -2.83372907	     -1.47199043	    -11.61753875	      4.56761969	      4.38618533	     -7.91355991	     -0.87888994	      6.63569603	    -10.55082166	     25.91244515	     -2.82824199	     -1.83711032	      2.03321293	      4.45244268
      1.76000000	     -5.67274576	     -0.20231223	    -28.94724789	     -0.78598073	      0.85481112	     -0.32705647	     32.54839840	     -2.97706077	     -1.56710421	    -10.29982365	      4.34810164	      4.74087086	     -8.18583340	     -0.80419055	      6.72303536	    -10.72919870	     26.21486240	     -2.71330951	     -1.79017800	      1.96450073	      4.36388945
      1.77000000	     -5.65230224	     -0.04312871	    -28.79150986	     -0.78175566	      0.85321005	     -0.32389639	     32.57415324	     -3.13593043	     -1.72352329	     -9.15725315	      4.10941366	      4.93821216	     -8.39505470	     -0.71479271	      6.83650499	    -10.93546910	     26.47844637	     -2.63822220	     -1.70306513	      1.88035162	      4.28582451
      1.78000000	     -5.64305423	      0.07911817	    -28.62614494	     -0.77743802	      0.85164408	     -0.32061481	     32.60206337	     -3.25916747	     -1.99737994	     -8.18009762	      3.95436282	      5.18909948	     -8.63331924	     -0.67723730	      6.93295182	    -11.12181229	     26.72800068	     -2.53235019	     -1.62812335	      1.83855426	      4.19491532
